<svg xmlns="http://www.w3.org/2000/svg" xmlns:xlink="http://www.w3.org/1999/xlink" viewBox="0 0 325.02 250.51"><defs><style>.cls-1{fill:url(#linear-gradient);}.cls-2{fill:url(#linear-gradient-2);}.cls-3{fill:url(#linear-gradient-3);}</style><linearGradient id="linear-gradient" x1="9069.32" y1="-77.66" x2="9650.9" y2="307.13" gradientTransform="matrix(-1, 0, 0, 1, 9548.88, 0)" gradientUnits="userSpaceOnUse"><stop offset="0.43" stop-color="#16bffd"/><stop offset="0.73" stop-color="#52e97a"/></linearGradient><linearGradient id="linear-gradient-2" x1="8994.65" y1="-127.07" x2="9576.22" y2="257.73" gradientTransform="matrix(-1, 0, 0, 1, 9548.88, 0)" gradientUnits="userSpaceOnUse"><stop offset="0.35" stop-color="#52e97a"/><stop offset="0.94" stop-color="#16cffd"/></linearGradient><linearGradient id="linear-gradient-3" x1="9196.91" y1="194.2" x2="9583.27" y2="110.54" gradientTransform="matrix(-1, 0, 0, 1, 9548.88, 0)" gradientUnits="userSpaceOnUse"><stop offset="0.14" stop-color="#52e97a"/><stop offset="0.77" stop-color="#1b83f3"/></linearGradient></defs><g id="Layer_2" data-name="Layer 2"><g id="Layer_1-2" data-name="Layer 1"><path class="cls-1" d="M142.49,145.09c23.91,13.8,53.16,15.69,79.14,3h0L325,0h0c-51.11,0-99.21,25.76-129.73,69.48L159.53,120.7Z"/><path class="cls-2" d="M142.49,145.09l2.48,1.38a86,86,0,0,0,15.52,6.46c.86.27,1.73.5,2.59.73,1.5.42,3,.77,4.51,1.11.69.15,1.33.27,2,.38,1,.19,2,.35,3,.54.69.07,1.4.19,2.08.27l2,.22c.94.12,1.83.2,2.76.23a83.15,83.15,0,0,0,42.17-8.33h0L325,0h0c-51.11,0-99.21,25.76-129.73,69.48L159.53,120.7Z"/><path class="cls-3" d="M105.88,80.59l27.59,41.25c20.33,30.39,56.92,41.46,88,26l.65-.32L197.71,184h0l-10.51,15.7h0l-34,50.77L0,21.4H0C41.71,21.4,81,43.35,105.88,80.59Z"/></g></g></svg>