<svg xmlns="http://www.w3.org/2000/svg" xmlns:xlink="http://www.w3.org/1999/xlink" viewBox="0 0 324.96 289.35"><defs><style>.cls-1{isolation:isolate;}.cls-2{fill:url(#_ÂÁ_Ï_ÌÌ_È_ËÂÌÚ_94);}.cls-3{fill:url(#_ÂÁ_Ï_ÌÌ_È_ËÂÌÚ_37);}.cls-4{fill:url(#_ÂÁ_Ï_ÌÌ_È_ËÂÌÚ_6);}.cls-5{fill:url(#_ÂÁ_Ï_ÌÌ_È_ËÂÌÚ_6-2);}.cls-6{fill:url(#_ÂÁ_Ï_ÌÌ_È_ËÂÌÚ_6-3);}.cls-7{fill:url(#_ÂÁ_Ï_ÌÌ_È_ËÂÌÚ_12);}.cls-11,.cls-8{mix-blend-mode:screen;}.cls-8{fill:url(#_ÂÁ_Ï_ÌÌ_È_ËÂÌÚ_18);}.cls-9{fill:#eefdff;}.cls-10{fill:url(#_ÂÁ_Ï_ÌÌ_È_ËÂÌÚ_12-2);}.cls-11{fill:url(#_ÂÁ_Ï_ÌÌ_È_ËÂÌÚ_18-2);}.cls-12{fill:url(#_ÂÁ_Ï_ÌÌ_È_ËÂÌÚ_12-3);}.cls-13{fill:url(#_ÂÁ_Ï_ÌÌ_È_ËÂÌÚ_6-4);}.cls-14{fill:#fff;}.cls-15{fill:url(#_ÂÁ_Ï_ÌÌ_È_ËÂÌÚ_28);}.cls-16{fill:url(#_ÂÁ_Ï_ÌÌ_È_ËÂÌÚ_49);}.cls-17{fill:url(#_ÂÁ_Ï_ÌÌ_È_ËÂÌÚ_6-5);}.cls-18{fill:url(#_ÂÁ_Ï_ÌÌ_È_ËÂÌÚ_38);}.cls-19{fill:url(#_ÂÁ_Ï_ÌÌ_È_ËÂÌÚ_37-2);}.cls-20{mix-blend-mode:soft-light;fill:url(#_ÂÁ_Ï_ÌÌ_È_ËÂÌÚ_69);}.cls-21{fill:url(#_ÂÁ_Ï_ÌÌ_È_ËÂÌÚ_96);}.cls-22{fill:url(#_ÂÁ_Ï_ÌÌ_È_ËÂÌÚ_6-6);}.cls-23{fill:url(#_ÂÁ_Ï_ÌÌ_È_ËÂÌÚ_6-7);}.cls-24{fill:url(#_ÂÁ_Ï_ÌÌ_È_ËÂÌÚ_6-8);}.cls-25{fill:url(#_ÂÁ_Ï_ÌÌ_È_ËÂÌÚ_6-9);}.cls-26{fill:url(#_ÂÁ_Ï_ÌÌ_È_ËÂÌÚ_6-10);}.cls-27{fill:url(#_ÂÁ_Ï_ÌÌ_È_ËÂÌÚ_6-11);}</style><linearGradient id="_ÂÁ_Ï_ÌÌ_È_ËÂÌÚ_94" x1="122.93" y1="78.5" x2="135.79" y2="113.4" gradientUnits="userSpaceOnUse"><stop offset="0" stop-color="#aef0eb"/><stop offset="0.01" stop-color="#b0f0eb"/><stop offset="0.14" stop-color="#c2f4eb"/><stop offset="0.29" stop-color="#cef6ea"/><stop offset="0.5" stop-color="#d5f8ea"/><stop offset="1" stop-color="#d7f8ea"/></linearGradient><linearGradient id="_ÂÁ_Ï_ÌÌ_È_ËÂÌÚ_37" x1="107.89" y1="206.35" x2="186.79" y2="125.41" gradientTransform="translate(385.74 47.53) rotate(83.59)" gradientUnits="userSpaceOnUse"><stop offset="0.04" stop-color="#06bed8"/><stop offset="1" stop-color="#defa8e"/></linearGradient><linearGradient id="_ÂÁ_Ï_ÌÌ_È_ËÂÌÚ_6" x1="238.28" y1="26.1" x2="252.97" y2="23.96" gradientUnits="userSpaceOnUse"><stop offset="0.04" stop-color="#06cff1"/><stop offset="1" stop-color="#defa8e"/></linearGradient><linearGradient id="_ÂÁ_Ï_ÌÌ_È_ËÂÌÚ_6-2" x1="234.53" y1="63.42" x2="260.61" y2="33.97" xlink:href="#_ÂÁ_Ï_ÌÌ_È_ËÂÌÚ_6"/><linearGradient id="_ÂÁ_Ï_ÌÌ_È_ËÂÌÚ_6-3" x1="196.75" y1="165.42" x2="300.1" y2="62.07" xlink:href="#_ÂÁ_Ï_ÌÌ_È_ËÂÌÚ_6"/><linearGradient id="_ÂÁ_Ï_ÌÌ_È_ËÂÌÚ_12" x1="247.99" y1="126.76" x2="248.91" y2="85.43" gradientUnits="userSpaceOnUse"><stop offset="0" stop-color="#030d14"/><stop offset="1" stop-color="#0b2f45"/></linearGradient><radialGradient id="_ÂÁ_Ï_ÌÌ_È_ËÂÌÚ_18" cx="224" cy="105.78" r="17.18" gradientUnits="userSpaceOnUse"><stop offset="0.13" stop-color="#3280fc"/><stop offset="1"/></radialGradient><linearGradient id="_ÂÁ_Ï_ÌÌ_È_ËÂÌÚ_12-2" x1="213.53" y1="105.78" x2="234.46" y2="105.78" xlink:href="#_ÂÁ_Ï_ÌÌ_È_ËÂÌÚ_12"/><radialGradient id="_ÂÁ_Ï_ÌÌ_È_ËÂÌÚ_18-2" cx="270.89" cy="105.78" r="17.18" xlink:href="#_ÂÁ_Ï_ÌÌ_È_ËÂÌÚ_18"/><linearGradient id="_ÂÁ_Ï_ÌÌ_È_ËÂÌÚ_12-3" x1="260.43" y1="105.78" x2="281.36" y2="105.78" xlink:href="#_ÂÁ_Ï_ÌÌ_È_ËÂÌÚ_12"/><linearGradient id="_ÂÁ_Ï_ÌÌ_È_ËÂÌÚ_6-4" x1="235.05" y1="8.36" x2="254.5" y2="5.52" xlink:href="#_ÂÁ_Ï_ÌÌ_È_ËÂÌÚ_6"/><linearGradient id="_ÂÁ_Ï_ÌÌ_È_ËÂÌÚ_28" x1="247.63" y1="142.81" x2="277.55" y2="112.89" gradientUnits="userSpaceOnUse"><stop offset="0.07" stop-color="#0da9ab"/><stop offset="1" stop-color="#defa8e"/></linearGradient><linearGradient id="_ÂÁ_Ï_ÌÌ_È_ËÂÌÚ_49" x1="219.37" y1="233.62" x2="298.65" y2="141.04" gradientUnits="userSpaceOnUse"><stop offset="0.04" stop-color="#06cff1"/><stop offset="0.04" stop-color="#06cff1"/><stop offset="0.16" stop-color="#37d9db"/><stop offset="0.27" stop-color="#5de0ca"/><stop offset="0.38" stop-color="#78e6bd"/><stop offset="0.47" stop-color="#88e9b6"/><stop offset="0.54" stop-color="#8eeab3"/><stop offset="0.8" stop-color="#b9f39f"/><stop offset="1" stop-color="#defa8e"/></linearGradient><linearGradient id="_ÂÁ_Ï_ÌÌ_È_ËÂÌÚ_6-5" x1="215.17" y1="187.46" x2="262.85" y2="131.79" xlink:href="#_ÂÁ_Ï_ÌÌ_È_ËÂÌÚ_6"/><linearGradient id="_ÂÁ_Ï_ÌÌ_È_ËÂÌÚ_38" x1="360.96" y1="235.75" x2="426.18" y2="201.76" gradientTransform="matrix(-0.99, -0.15, -0.15, 0.99, 709.94, 41.06)" gradientUnits="userSpaceOnUse"><stop offset="0.04" stop-color="#06cff1"/><stop offset="0.07" stop-color="#0fd1ed"/><stop offset="0.42" stop-color="#67e2c5"/><stop offset="0.69" stop-color="#a7efa7"/><stop offset="0.9" stop-color="#cff795"/><stop offset="1" stop-color="#defa8e"/></linearGradient><linearGradient id="_ÂÁ_Ï_ÌÌ_È_ËÂÌÚ_37-2" x1="265.3" y1="215.58" x2="307.37" y2="193.66" gradientTransform="matrix(1, 0, 0, 1, 0, 0)" xlink:href="#_ÂÁ_Ï_ÌÌ_È_ËÂÌÚ_37"/><radialGradient id="_ÂÁ_Ï_ÌÌ_È_ËÂÌÚ_69" cx="249.94" cy="140.67" r="48.49" gradientTransform="translate(-2.23 210.98) scale(1.01 0.41)" gradientUnits="userSpaceOnUse"><stop offset="0" stop-color="#bcd7d6"/><stop offset="1" stop-color="#fff"/></radialGradient><linearGradient id="_ÂÁ_Ï_ÌÌ_È_ËÂÌÚ_96" y1="47.46" x2="161.97" y2="47.46" gradientUnits="userSpaceOnUse"><stop offset="0" stop-color="#d7f8ea"/><stop offset="0.51" stop-color="#ecf8f2"/><stop offset="1" stop-color="#d7f8ea"/></linearGradient><linearGradient id="_ÂÁ_Ï_ÌÌ_È_ËÂÌÚ_6-6" x1="25.94" y1="49.66" x2="156.69" y2="21.9" gradientTransform="translate(-2.66 4.77) rotate(-2.63)" xlink:href="#_ÂÁ_Ï_ÌÌ_È_ËÂÌÚ_6"/><linearGradient id="_ÂÁ_Ï_ÌÌ_È_ËÂÌÚ_6-7" x1="28.15" y1="60.06" x2="158.9" y2="32.3" gradientTransform="translate(-2.66 4.77) rotate(-2.63)" xlink:href="#_ÂÁ_Ï_ÌÌ_È_ËÂÌÚ_6"/><linearGradient id="_ÂÁ_Ï_ÌÌ_È_ËÂÌÚ_6-8" x1="27.91" y1="58.91" x2="158.65" y2="31.15" gradientTransform="translate(-2.66 4.77) rotate(-2.63)" xlink:href="#_ÂÁ_Ï_ÌÌ_È_ËÂÌÚ_6"/><linearGradient id="_ÂÁ_Ï_ÌÌ_È_ËÂÌÚ_6-9" x1="28.48" y1="61.58" x2="159.22" y2="33.82" gradientTransform="translate(-2.66 4.77) rotate(-2.63)" xlink:href="#_ÂÁ_Ï_ÌÌ_È_ËÂÌÚ_6"/><linearGradient id="_ÂÁ_Ï_ÌÌ_È_ËÂÌÚ_6-10" x1="30.27" y1="70.03" x2="161.02" y2="42.27" gradientTransform="translate(-2.66 4.77) rotate(-2.63)" xlink:href="#_ÂÁ_Ï_ÌÌ_È_ËÂÌÚ_6"/><linearGradient id="_ÂÁ_Ï_ÌÌ_È_ËÂÌÚ_6-11" x1="30.07" y1="69.1" x2="160.82" y2="41.34" gradientTransform="translate(-2.66 4.77) rotate(-2.63)" xlink:href="#_ÂÁ_Ï_ÌÌ_È_ËÂÌÚ_6"/></defs><g class="cls-1"><g id="Layer_2" data-name="Layer 2"><g id="_ÎÓÈ_5" data-name="—ÎÓÈ_5"><path class="cls-2" d="M142.44,80.8s2.07,28,13.71,34.55c0,0-37.35-6.45-46.54-20.44S142.44,80.8,142.44,80.8Z"/><path class="cls-3" d="M179.64,163.29c23,6.3,28.46,4.53,32.56,10.7a14,14,0,0,1,2.39,9,13.28,13.28,0,0,1-3.74,7.81c-7.88,7.64-29.58-1.7-42-11.91-2.71-2.23-10-8.2-8.51-12.45.6-1.74,2.46-2.6,3.8-3.2C170,160.58,176.17,162.33,179.64,163.29Z"/><rect class="cls-4" x="245.81" y="8.57" width="4.9" height="32.15"/><rect class="cls-5" x="226.83" y="37.35" width="42.87" height="21.13" rx="4.52"/><path class="cls-6" d="M234.48,47.46H262A62.92,62.92,0,0,1,325,110.38v18.37a35.36,35.36,0,0,1-35.36,35.36H206.93a35.36,35.36,0,0,1-35.36-35.36V110.38a62.92,62.92,0,0,1,62.92-62.92Z"/><path class="cls-7" d="M300.83,125.4h0a14.84,14.84,0,0,1-6.54,1.51H202.23a14.84,14.84,0,0,1-6.54-1.51h0a12.12,12.12,0,0,1-7-12.41l.05-.37c2.36-17.1,17.85-30.24,36.84-31.23,8-.42,16.46-.63,25.25-.58q10.33.06,20,.57c19.06,1,34.66,14.08,37,31.24l0,.37A12.1,12.1,0,0,1,300.83,125.4Z"/><circle class="cls-8" cx="224" cy="105.78" r="17.36"/><circle class="cls-9" cx="224" cy="105.78" r="12.46"/><circle class="cls-10" cx="224" cy="105.78" r="10.46"/><path class="cls-9" d="M230.7,103.07a3.88,3.88,0,1,1-3.87-3.87A3.88,3.88,0,0,1,230.7,103.07Z"/><circle class="cls-9" cx="222.45" cy="113.81" r="1.55"/><path class="cls-9" d="M218.62,111.49a.78.78,0,1,1-.78-.78A.78.78,0,0,1,218.62,111.49Z"/><circle class="cls-11" cx="270.89" cy="105.78" r="17.36"/><circle class="cls-9" cx="270.89" cy="105.78" r="12.46"/><circle class="cls-12" cx="270.89" cy="105.78" r="10.46"/><path class="cls-9" d="M277.59,103.07a3.88,3.88,0,1,1-3.87-3.87A3.88,3.88,0,0,1,277.59,103.07Z"/><circle class="cls-9" cx="269.34" cy="113.81" r="1.55"/><path class="cls-9" d="M265.51,111.49a.78.78,0,1,1-.78-.78A.78.78,0,0,1,265.51,111.49Z"/><path class="cls-13" d="M254.54,6.43A6.28,6.28,0,1,1,248.26.15,6.28,6.28,0,0,1,254.54,6.43Z"/><path class="cls-14" d="M252.62,4a1.91,1.91,0,1,1-1.91-1.91A1.9,1.9,0,0,1,252.62,4Z"/><path class="cls-14" d="M302.3,67.58c.09,2.93-2.31,6.44-5.05,6.74-2.56.28-4.61-2.35-6.73-5s-6.64-9.52-4.83-11.46C288.09,55.25,302.11,60.67,302.3,67.58Z"/><circle class="cls-14" cx="278.84" cy="54.23" r="2.18"/><path class="cls-14" d="M302,108.23c-.7.49-5.58-9.45-18.67-18.06-4.61-3-9.15-5.19-8.88-5.82s5.39.55,9.49,2.45C297,92.86,302.82,107.64,302,108.23Z"/><path class="cls-14" d="M268.45,43.61c-.15,0-.25-.9-1-2.31a11.17,11.17,0,0,0-.76-1.23c-1.32-1.81-5.77-1.77-6.12-1.77-7,.06-11.41-.38-11.41-.33s3.26,0,5.64-.08c6.73-.14,10.74-.5,12.46,1.3a5.51,5.51,0,0,1,1.07,1.72C268.8,42.23,268.64,43.58,268.45,43.61Z"/><path class="cls-9" d="M267,134.36a3.54,3.54,0,0,1-3.22,3.1l-23,2.22a3.53,3.53,0,0,1-3.75-2.43,14.63,14.63,0,0,1-.5-2.2.77.77,0,0,1,.69-.88l29-2.79a.72.72,0,0,1,.56.18.7.7,0,0,1,.26.54A15.44,15.44,0,0,1,267,134.36Z"/><path class="cls-15" d="M267,134.36a15.36,15.36,0,0,1-29.87,3.17,3.56,3.56,0,0,0,3.66,2.15l23-2.22A3.54,3.54,0,0,0,267,134.36Z"/><path class="cls-16" d="M303.24,186c0,.21,0,.42,0,.61a14.37,14.37,0,0,1-.75,4C296.16,210,292.36,220.17,287,228.42c-.91,1.42-1.88,2.79-2.92,4.13-1.36,1.79-2.84,3.54-4.5,5.34-3.67,4-9.23,5.81-11,6.43-6.55,2.31-12.34,1.89-16.18,1.93h-.67c-3.86,0-9.64.38-16.19-1.93-1.79-.62-7.36-2.43-11-6.43-10.11-11-14-20.13-22.86-47.25a14,14,0,0,1-.74-3.78,13.72,13.72,0,0,1,0-1.57,16.54,16.54,0,0,1,3.84-9.33,21.31,21.31,0,0,1,16.55-7.73l30.77-.13,30.2-.12a21.79,21.79,0,0,1,17,7.75,17,17,0,0,1,3.75,7.8c.06.39.12.78.15,1.17S303.24,185.56,303.24,186Z"/><path class="cls-17" d="M252.08,168.1l-30.76.13A21.27,21.27,0,0,0,204.77,176a16.37,16.37,0,0,0-3.84,9.32,16.21,16.21,0,0,1,4-9.55,21.74,21.74,0,0,1,17-7.75Z"/><path class="cls-18" d="M282.65,213.42c-.45-23.86-3.67-28.58,1.09-34.25a14,14,0,0,1,7.93-4.83,13.32,13.32,0,0,1,8.55,1.38c9.55,5.41,6.72,28.86.43,43.67-1.37,3.22-5,11.88-9.53,11.68-1.84-.09-3.2-1.63-4.15-2.75C282.77,223.4,282.72,217,282.65,213.42Z"/><path class="cls-19" d="M287,228.42c-.91,1.42-1.88,2.79-2.92,4.13-.33-.34-.62-.68-.89-1-4.2-4.92-4.25-11.3-4.31-14.9-.46-23.86-3.69-28.57,1.08-34.25a14.7,14.7,0,0,1,3.7-3.19c-4.7,5.65-1.5,10.41-1.05,34.2.07,3.6.12,10,4.32,14.91C287,228.36,287,228.38,287,228.42Z"/><path class="cls-14" d="M300.51,193.55a40,40,0,0,0-1.58-8.22c-1.26-4.93-2.83-7.34-1.81-8.29.67-.62,2-.2,2.28-.1,4.51,1.43,5.9,9.9,5.71,15.19-.12,3.24-.91,6.87-2.1,7a1.35,1.35,0,0,1-1-.3C300.7,197.69,300.61,195.5,300.51,193.55Z"/><path class="cls-14" d="M303.61,202.6a.94.94,0,1,1-.94-.93A.94.94,0,0,1,303.61,202.6Z"/><ellipse class="cls-20" cx="250.71" cy="269.26" rx="49.07" ry="20.09"/><rect class="cls-21" width="161.97" height="94.91" rx="47.46"/><path class="cls-22" d="M50.91,65.62c0,.54-1.59.89-4.83,1s-4.88,0-4.9-.6L40.67,55l-6.75.31.51,11.08q0,.82-4.83,1c-3.24.15-4.87,0-4.9-.6L23.23,34.88q0-1,4.82-1.23t4.91.79l.52,11.32,6.75-.31-.52-11.23c0-.45.77-.81,2.37-1.07.83-.1,1.65-.17,2.45-.21l2.46,0c1.61.12,2.43.41,2.45.85Z"/><path class="cls-23" d="M73.67,64.09A15.32,15.32,0,0,1,66,66.23a11,11,0,0,1-8.2-2.88q-3.42-3.1-3.69-8.86a13.43,13.43,0,0,1,2.73-9.42,10.28,10.28,0,0,1,7.81-3.88q4.82-.22,7.56,2.11a7.92,7.92,0,0,1,2.9,5.86q.36,7.8-8.6,8.21l-3.33.15a2.29,2.29,0,0,0,.89,2,4.1,4.1,0,0,0,2.36.44,14,14,0,0,0,6.34-1.83s.18.18.46.65a7.48,7.48,0,0,1,1.32,3.44A1.85,1.85,0,0,1,73.67,64.09ZM67,50.44a1.77,1.77,0,0,0-2.07-1.93,2.35,2.35,0,0,0-1.54.63,2,2,0,0,0-.58,1.64l.07,1.49,2.6-.12A1.43,1.43,0,0,0,67,50.44Z"/><path class="cls-24" d="M87.68,64.36q0,.44-4.89.66-3.86.14-3.87-.21L77.41,32c0-.49,1.52-.8,4.64-.94,2.73,0,4.1.07,4.11.29Z"/><path class="cls-25" d="M100.78,63.76q0,.43-4.89.66Q92,64.54,92,64.21L90.51,31.4c0-.48,1.52-.79,4.64-.93,2.73,0,4.11.07,4.12.29Z"/><path class="cls-26" d="M107.1,61q-3.16-3.19-3.43-9.07t2.59-9.34a11.57,11.57,0,0,1,16.21-.74c2.09,2.12,3.23,5.15,3.41,9.06s-.68,7-2.57,9.34a10.34,10.34,0,0,1-7.94,3.7A10.46,10.46,0,0,1,107.1,61ZM114.61,47q-2.72.12-2.51,4.56c.13,3,1.11,4.39,2.92,4.3s2.66-1.6,2.52-4.55S116.43,46.87,114.61,47Z"/><path class="cls-27" d="M129.52,55.58q0-.33,4.44-.54t4.47.09l.31,6.93c0,.32-1.46.55-4.43.69s-4.46.11-4.47-.09Zm7.81-3.25c0,.19-1.13.34-3.43.44s-3.45.08-3.45-.08L128.39,29c0-.26,1.45-.46,4.39-.59s4.41-.09,4.42.13Z"/><path class="cls-14" d="M136.11,47.73s-1.9-17.2-1-17.67S136.54,39,136.11,47.73Z"/><path class="cls-14" d="M138,56.41a1,1,0,1,1-1-1A1,1,0,0,1,138,56.41Z"/><path class="cls-14" d="M124.46,48.88a8.88,8.88,0,0,0-2.1-5.91,6.8,6.8,0,0,0-5-2.41c-.19,0-.87.14-.91.42-.09.59,2.65,1,4.71,2.53A9.49,9.49,0,0,1,124.46,48.88Z"/><path class="cls-14" d="M97.74,31.07c1.05,0,1.45,19.28,1.15,22.77S97.31,31.07,97.74,31.07Z"/><path class="cls-14" d="M73.88,47.58c-.47-2.6-3.44-5.53-5.3-5.07s2.2,1.86,3.66,3.12S73.88,47.58,73.88,47.58Z"/><path class="cls-14" d="M57.56,62.44a8.51,8.51,0,0,0,5.29,2.75c0-.1-3.38-.56-5.18-3.31-.85-1.29-1.69-3.63-2.24-3.63a.07.07,0,0,0-.06,0C55.08,58.48,56.18,60.91,57.56,62.44Z"/><path class="cls-14" d="M49.65,62c-.68.95-.78-23.39-1.22-25.77V36c0-.15,0-.47,0-1.09a1.68,1.68,0,0,0-.25-.72c-.9-.81-4.86-.4-3.17-.62a10.92,10.92,0,0,1,3.65.11c.2.07.21.44.25.58C49.76,39.1,50.57,60.7,49.65,62Z"/><path class="cls-14" d="M156,35.69c-1.06.79-8.4-13.42-26.73-23.16C119,7.05,110.57,5.85,110.79,4.85c.26-1.17,12.28-1.6,23.18,3.85C150.33,16.89,157.16,34.85,156,35.69Z"/><circle class="cls-14" cx="157.39" cy="41.17" r="1.25"/><ellipse class="cls-14" cx="59.17" cy="5.06" rx="8.8" ry="2"/><path class="cls-14" d="M78.75,5.06c0,.6-1.07,1.09-2.39,1.09S74,5.66,74,5.06,75.05,4,76.36,4,78.75,4.47,78.75,5.06Z"/><path class="cls-14" d="M32.59,40.37c.17,3.07.15,5.56-.06,5.58s-.51-2.47-.69-5.54-.14-5.56.06-5.57S32.42,37.3,32.59,40.37Z"/><path class="cls-14" d="M144.63,101c1.43,4,2.93,6.36,2.59,6.58s-3-2.31-4.5-5.67c-2.68-5.87-1.24-12.23-.67-12.25S142.19,94.17,144.63,101Z"/></g></g></g></svg>