<svg xmlns="http://www.w3.org/2000/svg" viewBox="0 0 912.38 88.59"><defs><style>.cls-1{fill:#fff;}</style></defs><g id="Layer_2" data-name="Layer 2"><g id="Layer_1-2" data-name="Layer 1"><path d="M141.49.09a2.33,2.33,0,0,1,2.63,2.64V81.34A2.32,2.32,0,0,1,141.49,84H128.55c-1.84,0-2.76-.87-2.76-2.63V2.73q0-2.64,2.76-2.64Z"/><path d="M243.34.09A2.33,2.33,0,0,1,246,2.73V14.11a2.33,2.33,0,0,1-2.64,2.64h-60q-3.48,0-4.91,1.79A7.67,7.67,0,0,0,177,23.46v4.07q0,6.72,6.23,6.71h44.94q10.43,0,15.69,5.34t5.28,15.27v9.59q0,8.75-5.16,14.14T227.89,84H161.5c-1.84,0-2.76-.87-2.76-2.63V70c0-1.75.92-2.63,2.76-2.63h62.91q3.48,0,4.91-1.8a7.65,7.65,0,0,0,1.44-4.91V55.69q0-6.7-6.23-6.71H179.59q-10.43,0-15.69-5.33t-5.28-15.28V19.62q0-8.75,5.16-14.14T179.83.09Z"/><path d="M278.45.09a2.33,2.33,0,0,1,2.64,2.64V81.34A2.33,2.33,0,0,1,278.45,84H265.51c-1.84,0-2.75-.87-2.75-2.63V2.73c0-1.76.91-2.64,2.75-2.64Z"/><path d="M366.65.09a60,60,0,0,1,15.52,1.74,24.22,24.22,0,0,1,10.42,5.51,21.59,21.59,0,0,1,5.81,9.77,51.37,51.37,0,0,1,1.8,14.62V52.34A52.05,52.05,0,0,1,398.4,67a21.55,21.55,0,0,1-5.81,9.82,23.64,23.64,0,0,1-10.42,5.46A62.09,62.09,0,0,1,366.65,84h-37a61.36,61.36,0,0,1-15.46-1.67,23.57,23.57,0,0,1-10.36-5.46A22,22,0,0,1,297.92,67a50.84,50.84,0,0,1-1.85-14.68V31.73a50.17,50.17,0,0,1,1.85-14.62,22.05,22.05,0,0,1,5.88-9.77,24.16,24.16,0,0,1,10.36-5.51A59.3,59.3,0,0,1,329.62.09ZM314.4,51a33.5,33.5,0,0,0,.78,7.85,10.78,10.78,0,0,0,2.58,5,10,10,0,0,0,4.85,2.64,32,32,0,0,0,7.73.78h35.59a32,32,0,0,0,7.73-.78,10,10,0,0,0,4.85-2.64,10.78,10.78,0,0,0,2.58-5,33.5,33.5,0,0,0,.78-7.85v-18a33.44,33.44,0,0,0-.78-7.85,10.77,10.77,0,0,0-2.58-5,10.07,10.07,0,0,0-4.85-2.63,32,32,0,0,0-7.73-.78H330.34a32,32,0,0,0-7.73.78,10.07,10.07,0,0,0-4.85,2.63,10.77,10.77,0,0,0-2.58,5,33.44,33.44,0,0,0-.78,7.85Z"/><path d="M436.39.09a39.73,39.73,0,0,1,4.79.24,9.46,9.46,0,0,1,3.36,1,11.44,11.44,0,0,1,2.75,2.16,39,39,0,0,1,3,3.65l44.57,58.48a1.66,1.66,0,0,0,1.56.84h1.08q1,0,1-1.2V2.73A2.33,2.33,0,0,1,501.1.09h12.58a2.33,2.33,0,0,1,2.63,2.64V71.51q0,7.3-2.63,9.89c-1.76,1.72-4.48,2.57-8.15,2.57H495.22a37,37,0,0,1-4.61-.24,10.39,10.39,0,0,1-3.29-1,11,11,0,0,1-2.82-2.1,36,36,0,0,1-3.18-3.78L436.63,18.43a2.06,2.06,0,0,0-1.56-.84H434q-1,0-1,1.2V81.34A2.32,2.32,0,0,1,430.4,84H417.81c-1.84,0-2.75-.87-2.75-2.63V12.55q0-7.31,2.63-9.88T425.84.09Z"/><path d="M604.87.09Q617.22.09,622.42,5t5.22,14.85v5.75q0,10.08-7.67,15.22,8.26,4.8,8.27,15.46v7a31.84,31.84,0,0,1-1.08,8.63,15.92,15.92,0,0,1-3.54,6.53,15.57,15.57,0,0,1-6.53,4.13A30.46,30.46,0,0,1,607,84H535.85c-2.4,0-3.6-1.19-3.6-3.59V3.69q0-3.6,3.6-3.6ZM550.58,35h49.13q6,0,8.15-1.79A6.48,6.48,0,0,0,610,27.89V23.82q0-3.72-2.1-5.45t-6.77-1.74h-49a1.38,1.38,0,0,0-1.56,1.56Zm0,13.06V65.88a1.38,1.38,0,0,0,1.56,1.56h49.13c3.2,0,5.47-.58,6.83-1.74s2-3,2-5.57V55.57a7,7,0,0,0-2.22-5.63c-1.48-1.28-4.21-1.92-8.21-1.92Z"/><path d="M712,.09a59.87,59.87,0,0,1,15.51,1.74,24.2,24.2,0,0,1,10.43,5.51,21.68,21.68,0,0,1,5.81,9.77,51.37,51.37,0,0,1,1.8,14.62V52.34A52.05,52.05,0,0,1,743.75,67a21.64,21.64,0,0,1-5.81,9.82,23.62,23.62,0,0,1-10.43,5.46A62,62,0,0,1,712,84H675a61.31,61.31,0,0,1-15.46-1.67,23.61,23.61,0,0,1-10.37-5.46A22.08,22.08,0,0,1,643.27,67a50.5,50.5,0,0,1-1.85-14.68V31.73a49.83,49.83,0,0,1,1.85-14.62,22.13,22.13,0,0,1,5.87-9.77,24.2,24.2,0,0,1,10.37-5.51A59.25,59.25,0,0,1,675,.09ZM659.75,51a33.5,33.5,0,0,0,.78,7.85,10.78,10.78,0,0,0,2.58,5A10,10,0,0,0,668,66.54a32,32,0,0,0,7.73.78h35.59a32,32,0,0,0,7.73-.78,10,10,0,0,0,4.85-2.64,10.77,10.77,0,0,0,2.57-5,33.5,33.5,0,0,0,.78-7.85v-18a33.44,33.44,0,0,0-.78-7.85,10.76,10.76,0,0,0-2.57-5A10.11,10.11,0,0,0,719,17.53a32,32,0,0,0-7.73-.78H675.69a32,32,0,0,0-7.73.78,10,10,0,0,0-4.85,2.63,10.77,10.77,0,0,0-2.58,5,33.44,33.44,0,0,0-.78,7.85Z"/><path d="M835.13,36.12,874.77,84H846.93L818.15,49.19c-4.38,3.77-8.65,7.76-12.74,12A156.53,156.53,0,0,0,787.22,83.9h-35.4L762,56.31s14.85-12.1,41.24-25.2L781.94,5.41l.11-.57.12-.62h26.62l.09.17.08.15L823.38,22A307.35,307.35,0,0,1,910.7.18l.82-.09.86-.09S873.16,9.75,835.13,36.12Z"/><path d="M117.11,2.63a5.16,5.16,0,0,0-4.4-2.48H91.56a5.17,5.17,0,0,0-4.62,2.9L61,55.63l5.78,11.73,28-56.73h9.6l-32.53,66a2.57,2.57,0,0,1-4.62,0L64.72,71.6h0L58.94,59.88h0l-28-56.83A5.17,5.17,0,0,0,26.32.15H5.17A5.16,5.16,0,0,0,.77,2.63a5.29,5.29,0,0,0-.22,5.1L36.81,81.35A12.84,12.84,0,0,0,56.08,86l-5-10.16-.39.81a2.57,2.57,0,0,1-4.63,0l-32.53-66h9.6l28.58,58,7.15,14.51.09-.13a12.83,12.83,0,0,0,22.13-1.66L117.33,7.73A5.29,5.29,0,0,0,117.11,2.63Z"/><path class="cls-1" d="M141.49.09a2.33,2.33,0,0,1,2.63,2.64V81.34A2.32,2.32,0,0,1,141.49,84H128.55c-1.84,0-2.76-.87-2.76-2.63V2.73q0-2.64,2.76-2.64Z"/><path class="cls-1" d="M243.34.09A2.33,2.33,0,0,1,246,2.73V14.11a2.33,2.33,0,0,1-2.64,2.64h-60q-3.48,0-4.91,1.79A7.67,7.67,0,0,0,177,23.46v4.07q0,6.72,6.23,6.71h44.94q10.43,0,15.69,5.34t5.28,15.27v9.59q0,8.75-5.16,14.14T227.89,84H161.5c-1.84,0-2.76-.87-2.76-2.63V70c0-1.75.92-2.63,2.76-2.63h62.91q3.48,0,4.91-1.8a7.65,7.65,0,0,0,1.44-4.91V55.69q0-6.7-6.23-6.71H179.59q-10.43,0-15.69-5.33t-5.28-15.28V19.62q0-8.75,5.16-14.14T179.83.09Z"/><path class="cls-1" d="M278.45.09a2.33,2.33,0,0,1,2.64,2.64V81.34A2.33,2.33,0,0,1,278.45,84H265.51c-1.84,0-2.75-.87-2.75-2.63V2.73c0-1.76.91-2.64,2.75-2.64Z"/><path class="cls-1" d="M366.65.09a60,60,0,0,1,15.52,1.74,24.22,24.22,0,0,1,10.42,5.51,21.59,21.59,0,0,1,5.81,9.77,51.37,51.37,0,0,1,1.8,14.62V52.34A52.05,52.05,0,0,1,398.4,67a21.55,21.55,0,0,1-5.81,9.82,23.64,23.64,0,0,1-10.42,5.46A62.09,62.09,0,0,1,366.65,84h-37a61.36,61.36,0,0,1-15.46-1.67,23.57,23.57,0,0,1-10.36-5.46A22,22,0,0,1,297.92,67a50.84,50.84,0,0,1-1.85-14.68V31.73a50.17,50.17,0,0,1,1.85-14.62,22.05,22.05,0,0,1,5.88-9.77,24.16,24.16,0,0,1,10.36-5.51A59.3,59.3,0,0,1,329.62.09ZM314.4,51a33.5,33.5,0,0,0,.78,7.85,10.78,10.78,0,0,0,2.58,5,10,10,0,0,0,4.85,2.64,32,32,0,0,0,7.73.78h35.59a32,32,0,0,0,7.73-.78,10,10,0,0,0,4.85-2.64,10.78,10.78,0,0,0,2.58-5,33.5,33.5,0,0,0,.78-7.85v-18a33.44,33.44,0,0,0-.78-7.85,10.77,10.77,0,0,0-2.58-5,10.07,10.07,0,0,0-4.85-2.63,32,32,0,0,0-7.73-.78H330.34a32,32,0,0,0-7.73.78,10.07,10.07,0,0,0-4.85,2.63,10.77,10.77,0,0,0-2.58,5,33.44,33.44,0,0,0-.78,7.85Z"/><path class="cls-1" d="M436.39.09a39.73,39.73,0,0,1,4.79.24,9.46,9.46,0,0,1,3.36,1,11.44,11.44,0,0,1,2.75,2.16,39,39,0,0,1,3,3.65l44.57,58.48a1.66,1.66,0,0,0,1.56.84h1.08q1,0,1-1.2V2.73A2.33,2.33,0,0,1,501.1.09h12.58a2.33,2.33,0,0,1,2.63,2.64V71.51q0,7.3-2.63,9.89c-1.76,1.72-4.48,2.57-8.15,2.57H495.22a37,37,0,0,1-4.61-.24,10.39,10.39,0,0,1-3.29-1,11,11,0,0,1-2.82-2.1,36,36,0,0,1-3.18-3.78L436.63,18.43a2.06,2.06,0,0,0-1.56-.84H434q-1,0-1,1.2V81.34A2.32,2.32,0,0,1,430.4,84H417.81c-1.84,0-2.75-.87-2.75-2.63V12.55q0-7.31,2.63-9.88T425.84.09Z"/><path class="cls-1" d="M604.87.09Q617.22.09,622.42,5t5.22,14.85v5.75q0,10.08-7.67,15.22,8.26,4.8,8.27,15.46v7a31.84,31.84,0,0,1-1.08,8.63,15.92,15.92,0,0,1-3.54,6.53,15.57,15.57,0,0,1-6.53,4.13A30.46,30.46,0,0,1,607,84H535.85c-2.4,0-3.6-1.19-3.6-3.59V3.69q0-3.6,3.6-3.6ZM550.58,35h49.13q6,0,8.15-1.79A6.48,6.48,0,0,0,610,27.89V23.82q0-3.72-2.1-5.45t-6.77-1.74h-49a1.38,1.38,0,0,0-1.56,1.56Zm0,13.06V65.88a1.38,1.38,0,0,0,1.56,1.56h49.13c3.2,0,5.47-.58,6.83-1.74s2-3,2-5.57V55.57a7,7,0,0,0-2.22-5.63c-1.48-1.28-4.21-1.92-8.21-1.92Z"/><path class="cls-1" d="M712,.09a59.87,59.87,0,0,1,15.51,1.74,24.2,24.2,0,0,1,10.43,5.51,21.68,21.68,0,0,1,5.81,9.77,51.37,51.37,0,0,1,1.8,14.62V52.34A52.05,52.05,0,0,1,743.75,67a21.64,21.64,0,0,1-5.81,9.82,23.62,23.62,0,0,1-10.43,5.46A62,62,0,0,1,712,84H675a61.31,61.31,0,0,1-15.46-1.67,23.61,23.61,0,0,1-10.37-5.46A22.08,22.08,0,0,1,643.27,67a50.5,50.5,0,0,1-1.85-14.68V31.73a49.83,49.83,0,0,1,1.85-14.62,22.13,22.13,0,0,1,5.87-9.77,24.2,24.2,0,0,1,10.37-5.51A59.25,59.25,0,0,1,675,.09ZM659.75,51a33.5,33.5,0,0,0,.78,7.85,10.78,10.78,0,0,0,2.58,5A10,10,0,0,0,668,66.54a32,32,0,0,0,7.73.78h35.59a32,32,0,0,0,7.73-.78,10,10,0,0,0,4.85-2.64,10.77,10.77,0,0,0,2.57-5,33.5,33.5,0,0,0,.78-7.85v-18a33.44,33.44,0,0,0-.78-7.85,10.76,10.76,0,0,0-2.57-5A10.11,10.11,0,0,0,719,17.53a32,32,0,0,0-7.73-.78H675.69a32,32,0,0,0-7.73.78,10,10,0,0,0-4.85,2.63,10.77,10.77,0,0,0-2.58,5,33.44,33.44,0,0,0-.78,7.85Z"/><path class="cls-1" d="M835.13,36.12,874.77,84H846.93L818.15,49.19c-4.38,3.77-8.65,7.76-12.74,12A156.53,156.53,0,0,0,787.22,83.9h-35.4L762,56.31s14.85-12.1,41.24-25.2L781.94,5.41l.11-.57.12-.62h26.62l.09.17.08.15L823.38,22A307.35,307.35,0,0,1,910.7.18l.82-.09.86-.09S873.16,9.75,835.13,36.12Z"/><path class="cls-1" d="M835.13,36.12,874.77,84H846.93L818.15,49.19c-4.38,3.77-8.65,7.76-12.74,12A156.53,156.53,0,0,0,787.22,83.9h-35.4L762,56.31s14.85-12.1,41.24-25.2L781.94,5.41l.11-.57.12-.62h26.62l.09.17.08.15L823.38,22A307.35,307.35,0,0,1,910.7.18l.82-.09.86-.09S873.16,9.75,835.13,36.12Z"/><path class="cls-1" d="M835.13,36.12,874.77,84H846.93L818.15,49.19c-4.38,3.77-8.65,7.76-12.74,12A156.53,156.53,0,0,0,787.22,83.9h-35.4L762,56.31s14.85-12.1,41.24-25.2L781.94,5.41l.11-.57.12-.62h26.62l.09.17.08.15L823.38,22A307.35,307.35,0,0,1,910.7.18l.82-.09.86-.09S873.16,9.75,835.13,36.12Z"/><path class="cls-1" d="M117.11,2.63a5.16,5.16,0,0,0-4.4-2.48H91.56a5.17,5.17,0,0,0-4.62,2.9L61,55.63l5.78,11.73,28-56.73h9.6l-32.53,66a2.57,2.57,0,0,1-4.62,0L64.72,71.6h0L58.94,59.88h0l-28-56.83A5.17,5.17,0,0,0,26.32.15H5.17A5.16,5.16,0,0,0,.77,2.63a5.29,5.29,0,0,0-.22,5.1L36.81,81.35A12.84,12.84,0,0,0,56.08,86l-5-10.16-.39.81a2.57,2.57,0,0,1-4.63,0l-32.53-66h9.6l28.58,58,7.15,14.51.09-.13a12.83,12.83,0,0,0,22.13-1.66L117.33,7.73A5.29,5.29,0,0,0,117.11,2.63Z"/></g></g></svg>